# xmcd
#
# Track frame offsets:
#	150
#	12217
#	22684
#	39241
#	51648
#	68830
#	84597
#	99469
#	115336
#	130573
#	143115
#	154822
#
# Disc length: 2283 seconds
#
# Revision: 0
# Processed by: cddbd v1.5PL3 Copyright (c) Steve Scherf et al.
# Submitted via: dBpowerAMP V4.0
#
DISCID=9208e90c
DTITLE=Mark Templeton and New Vision - I'm Walking The Dog
DYEAR=1900
DGENRE=Bluegrass
TTITLE0=I'M Walking The Dog
TTITLE1=Head Over Heels
TTITLE2=Bringing Mary Home
TTITLE3=Charlie Hollered
TTITLE4=Grandpa's Walking Cane
TTITLE5=Red Wing
TTITLE6=Dark AsA Dungeon
TTITLE7=Lonesome River
TTITLE8=Take Me In Your Lifeboat
TTITLE9=Man Of Constant Sorrow
TTITLE10=Gathering Flowers From The Hillside
TTITLE11=Tears Are A Language
EXTD=
EXTT0=
EXTT1=
EXTT2=
EXTT3=
EXTT4=
EXTT5=
EXTT6=
EXTT7=
EXTT8=
EXTT9=
EXTT10=
EXTT11=
PLAYORDER=
